<?xml version="1.0" encoding="utf-8"?>
<!-- Generator: Adobe Illustrator 26.0.1, SVG Export Plug-In . SVG Version: 6.00 Build 0)  -->
<svg version="1.1" id="Layer_1" xmlns="http://www.w3.org/2000/svg" xmlns:xlink="http://www.w3.org/1999/xlink" x="0px" y="0px"
	 viewBox="0 0 1920 1080" style="enable-background:new 0 0 1920 1080;" xml:space="preserve">
<style type="text/css">
	.st0{fill:#3A2000;}
	.st1{fill:#222335;}
	.st2{fill:#385269;}
	.st3{fill:#253D4F;}
	.st4{fill:#FA7123;}
	.st5{fill:#DDE0F3;}
	.st6{fill:#E19482;}
	.st7{fill:#AF5C4B;}
	.st8{fill:#010000;}
	.st9{fill:#DB5816;}
	.st10{fill:#3C4C59;}
	.st11{fill:#844939;}
	.st12{fill:#51261C;}
	.st13{fill:#FEB849;}
	.st14{fill:#D3A281;}
	.st15{fill:#895A3A;}
	.st16{fill:#895430;}
</style>
<g>
	<g>
		<path class="st0" d="M337.4,477.45c0,0-52.68-31.53-20.3-106.2c45.89-32.96,99.3-2.72,91.94,42.36
			c-6.11,37.4-71.81-1.37-71.81-1.37l-2.27,17.96L337.4,477.45z"/>
		<g>
			<path class="st1" d="M259,770.49h-70.87v-44.95c0-11.05,8.99-20.04,20.04-20.04h30.79c11.05,0,20.04,8.99,20.04,20.04V770.49z
				 M190.84,767.77h65.43v-42.23c0-9.55-7.77-17.32-17.32-17.32h-30.79c-9.55,0-17.32,7.77-17.32,17.32V767.77z"/>
			<g>
				<path class="st2" d="M262.12,838.32c-25.71,8.06-51.41,8.06-77.12,0v-84.56h77.12V838.32z"/>
				<path class="st3" d="M262.12,769.13c-25.63,6-51.34,5.42-77.12,0v-15.38h77.12V769.13z"/>
			</g>
		</g>
		<rect x="314.33" y="675.87" class="st4" width="69.02" height="26.62"/>
		<path class="st5" d="M413.57,574.31v0.02c-6.94,32.22-18.79,64.76-16.03,98.09c-33.9,17.11-87.15,7.89-87.15,7.89
			c9.84-45.51-4.63-79.94-11.91-110.65c-6.44-27.17-14.19-47.99-13.73-61.41c0.54-15.79,14.31-26.76,26.53-33.43
			c4.27-2.34,8.36-4.14,11.63-5.44c4.31-1.71,7.2-2.54,7.2-2.54l59.16-4.93c0,0,2.83,0.83,10.82,5.31
			c3.18,1.77,7.18,4.13,12.15,7.25c4.01,2.52,8.66,5.53,14.01,9.13C432,499.5,422.27,533.94,413.57,574.31z"/>
		<path class="st6" d="M557.91,479.53l12.27-12.07c0,0,28.03,7.43,37.74-18.39c12.35-32.85-25.92,3.06-26.08-5.54
			c-0.17-8.6,4.98-17.82-11.91-2.66c-5.23,4.69-6.4,19.33-6.4,19.33l-13.39,12.25L557.91,479.53z"/>
		<path class="st5" d="M379.65,525.8c0,0,87.25,33.34,129.28,6.09c21.97-14.25,61.27-49.95,65.72-56.18
			c-8.53-7.66-19.82-18.19-19.82-18.19s-58.95,32.58-67.4,37.75c-8.45,5.17-66.43-18.79-80.75-13.92
			C392.37,486.23,318.48,498.85,379.65,525.8z"/>
		<path class="st4" d="M413.57,574.33c-6.94,32.22-17.48,78.24-14.72,111.57c-33.9,17.11-100.03,13.67-100.03,13.67
			c1.23-50.05,6.93-99.2-0.35-129.91c21.62-18.45,26.01-57.19,26.01-57.19l-13.2-37.65c4.27-2.34,8.36-4.14,11.63-5.44l15.23,36.05
			l55.07-2.11l6.87-36.1c3.18,1.77,7.18,4.13,12.15,7.25c-9.29,53.75,1.34,99.84,1.34,99.84V574.33z"/>
		<path class="st6" d="M332.57,375.54l-0.44,91.29c0,0,41.52,9.92,55.16-7.27c26.28-33.1,9.04-62.98-2.14-78.1
			C373.98,366.34,332.57,375.54,332.57,375.54z"/>
		<path class="st6" d="M341.58,422.81c0,3.86-4.67,21.52-9.89,21.52c-5.22,0-9.01-17.66-9.01-21.52c0-3.86,4.23-6.99,9.45-6.99
			C337.35,415.82,341.58,418.95,341.58,422.81z"/>
		<path class="st0" d="M392.76,371.13c0,0,0.62,50.1-65.17,50.1c-5.33-31.97,0-54.1,0-54.1L392.76,371.13z"/>
		<path class="st7" d="M370.45,455.52c-6.54,0-11.92-4.05-11.99-4.11l0.66-0.86c0.09,0.07,9.03,6.78,17.5,2.4l0.5,0.97
			C374.87,455.08,372.6,455.52,370.45,455.52z"/>
		<polygon class="st4" points="304.63,680.76 281.31,922.5 295.65,922.5 341.44,680.76 		"/>
		<polygon class="st4" points="365.13,674.64 390.93,920.54 402.18,920.54 396.1,668.61 		"/>
		<path class="st8" d="M401.57,919.95l26.77,6.79c2.78,0.7,2.44,7.84-0.37,7.75l-44.96-1.43l3.46-13.11h3.94H401.57z"/>
		<path class="st8" d="M294.94,917.65l26.76,6.79c2.78,0.7,2.44,7.84-0.37,7.75l-44.96-1.43l3.46-13.11h3.94H294.94z"/>
		<path class="st9" d="M376.5,625.57h-27.01c-10.83,0-19.6-8.78-19.6-19.6v-39.25h66.21v39.25
			C396.1,616.79,387.33,625.57,376.5,625.57z"/>
		<g>
			<path class="st6" d="M225.58,659.14l-0.33,17.19c0,0-23.35,25.2-13.77,40.54c25.74,41.2,15.21-21.2,21.68-15.52
				c6.46,5.68,24.49,1.2,6.81-13.02c-5.48-4.4-6.77-11.74-6.77-11.74l-0.02-18.15L225.58,659.14z"/>
			<path class="st5" d="M291.22,492.88c0,0-39.44,45.47-55.58,92.89c-16.14,47.42-17.41,52.24-18.96,89.78
				c11.34,1.73,26.89,0.61,26.89,0.61s15.33-41.56,27.13-56.07c6.25-7.69,49.11-85.82,48.16-100.92
				C317.9,504.09,310.65,468.71,291.22,492.88z"/>
		</g>
		<g>
			<path class="st2" d="M399.3,375.59c0.42,19.29-19.38,5.94-43.43,6.46c-24.05,0.52-43.25,14.72-43.67-4.57
				c-0.42-19.29,18.74-35.36,42.79-35.88C379.05,341.07,398.89,356.29,399.3,375.59z"/>
			
				<ellipse transform="matrix(0.9998 -0.0217 0.0217 0.9998 -8.2215 8.0138)" class="st3" cx="365.64" cy="383.35" rx="50.74" ry="9.2"/>
		</g>
		<g>
			<g>
				<path class="st10" d="M623.03,378.3c-3.72,7.62-7.77,16.84-10.18,26.31c-1.98,7.74-2.87,15.64-1.6,22.99l-41.47-5.54
					c-0.75-7.78,0.25-15.97,2.15-23.75c2.36-9.68,6.12-18.72,9.62-25.55L623.03,378.3z"/>
				<path class="st1" d="M586,478.59l-3.33-0.44c-1.34-0.18-2.27-1.41-2.1-2.74l6.48-48.57c0.18-1.34,1.41-2.27,2.74-2.1l3.33,0.44
					c1.34,0.18,2.27,1.41,2.1,2.74l-6.48,48.57C588.57,477.83,587.34,478.77,586,478.59z"/>
				
					<rect x="586.71" y="402.01" transform="matrix(0.1322 -0.9912 0.9912 0.1322 91.35 954.0095)" class="st1" width="7.61" height="45.64"/>
			</g>
			<path class="st4" d="M623.03,378.3c-3.72,7.62-7.77,16.84-10.18,26.31c-0.28-0.17-0.56-0.34-0.85-0.52
				c-7.05-4.39-4.26-1.49-9.54,1.12c-5.28,2.61-9.61,1.54-10.57-5.11c-0.95-6.65-5.41-0.48-12,3.99c-3.1,2.1-5.88-1.43-7.96-5.78
				c2.36-9.68,6.12-18.72,9.62-25.55L623.03,378.3z"/>
		</g>
	</g>
	<g>
		<g>
			<path class="st1" d="M944.48,862.69H873.6v-44.95c0-11.05,8.99-20.04,20.04-20.04h30.79c11.05,0,20.04,8.99,20.04,20.04V862.69z
				 M876.33,859.97h65.43v-42.23c0-9.55-7.77-17.32-17.32-17.32h-30.79c-9.55,0-17.32,7.77-17.32,17.32V859.97z"/>
			<g>
				<path class="st2" d="M947.6,930.51c-25.71,8.06-51.41,8.06-77.12,0v-84.56h77.12V930.51z"/>
				<path class="st3" d="M947.6,861.33c-25.63,6-51.34,5.42-77.12,0v-15.38h77.12V861.33z"/>
			</g>
		</g>
		<rect x="754.55" y="675.87" class="st4" width="69.02" height="26.62"/>
		<path class="st5" d="M853.8,574.31v0.02c-6.94,32.22-18.79,64.76-16.03,98.09c-33.9,17.11-87.15,7.89-87.15,7.89
			c9.84-45.51-4.63-79.94-11.91-110.65c-6.44-27.17-14.19-47.99-13.73-61.41c0.54-15.79,14.31-26.76,26.53-33.43
			c4.27-2.34,8.36-4.14,11.63-5.44c4.31-1.71,7.2-2.54,7.2-2.54l59.16-4.93c0,0,2.83,0.83,10.82,5.31
			c3.18,1.77,7.18,4.13,12.15,7.25c4.01,2.52,8.66,5.53,14.01,9.13C872.22,499.5,862.49,533.94,853.8,574.31z"/>
		<path class="st11" d="M945.36,432.83l-1.08-17.18c0,0,23.98-16.3,10.83-40.56c-16.72-30.85-14.67,21.58-21.27,16.07
			c-6.61-5.51-10.2-15.44-9.81,7.25c0.12,7.03,10.41,17.5,10.41,17.5l0.48,18.15L945.36,432.83z"/>
		<path class="st5" d="M819.87,525.8c0,0,126,27.94,132.95-21.66c3.64-25.93,2.41-79.01,0.63-86.46
			c-11.38,1.43-26.73,3.05-26.73,3.05s-11.74,54.15-13.37,63.92c-1.63,9.77-52.13-8.18-66.45-3.3
			C832.59,486.23,758.71,498.85,819.87,525.8z"/>
		<path class="st4" d="M853.8,574.33c-6.94,32.22-17.48,78.24-14.72,111.57c-33.9,17.11-100.03,13.67-100.03,13.67
			c1.23-50.05,6.93-99.2-0.35-129.91c21.62-18.45,26.01-57.19,26.01-57.19l-13.2-37.65c4.27-2.34,8.36-4.14,11.63-5.44l15.23,36.05
			l55.07-2.11l6.87-36.1c3.18,1.77,7.18,4.13,12.15,7.25c-9.29,53.75,1.34,99.84,1.34,99.84V574.33z"/>
		<path class="st0" d="M770.12,490.62c0,0-55.13,10.89-12.78-119.37c45.89-32.96,99.3-2.72,91.94,42.36
			c-6.11,37.4-71.81-1.37-71.81-1.37l-2.27,17.96L770.12,490.62z"/>
		<path class="st11" d="M772.79,375.54l-0.44,91.29c0,0,41.52,9.92,55.16-7.27c26.28-33.1,9.04-62.98-2.14-78.1
			C814.21,366.34,772.79,375.54,772.79,375.54z"/>
		<path class="st11" d="M781.8,422.81c0,3.86-4.67,21.52-9.89,21.52c-5.22,0-9.01-17.66-9.01-21.52c0-3.86,4.23-6.99,9.45-6.99
			C777.57,415.82,781.8,418.95,781.8,422.81z"/>
		<path class="st0" d="M778.63,371.13c0,0-0.62,50.1,65.17,50.1c0.05-0.32,0.11-0.64,0.16-0.96c4.43-27.54-17.86-52.06-45.7-50.35
			L778.63,371.13z"/>
		<path class="st12" d="M810.67,455.52c-6.53,0-11.92-4.05-11.99-4.11l0.66-0.86c0.09,0.07,9.03,6.78,17.5,2.4l0.5,0.97
			C815.1,455.08,812.82,455.52,810.67,455.52z"/>
		<polygon class="st4" points="744.86,680.76 721.54,922.5 735.88,922.5 781.67,680.76 		"/>
		<polygon class="st4" points="805.35,674.64 831.16,920.54 842.41,920.54 836.33,668.61 		"/>
		<path class="st8" d="M841.8,919.95l26.77,6.79c2.78,0.7,2.44,7.84-0.37,7.75l-44.96-1.43l3.46-13.11h3.94H841.8z"/>
		<path class="st8" d="M735.16,917.65l26.77,6.79c2.78,0.7,2.44,7.84-0.37,7.75l-44.96-1.43l3.46-13.11H724H735.16z"/>
		<path class="st9" d="M816.73,625.57h-27.01c-10.83,0-19.6-8.78-19.6-19.6v-39.25h66.21v39.25
			C836.33,616.79,827.55,625.57,816.73,625.57z"/>
		<g>
			<path class="st2" d="M839.53,375.59c0.42,19.29-19.38,5.94-43.43,6.46c-24.05,0.52-43.25,14.72-43.67-4.57
				c-0.42-19.29,18.74-35.36,42.79-35.88C819.28,341.07,839.11,356.29,839.53,375.59z"/>
			
				<ellipse transform="matrix(0.9998 -0.0217 0.0217 0.9998 -8.1182 17.5539)" class="st3" cx="805.87" cy="383.35" rx="50.74" ry="9.2"/>
		</g>
		<g>
			<path class="st1" d="M731.74,745.81l-4.76-2.82c-1.91-1.13-2.54-3.59-1.41-5.5l262.07-442.74c1.13-1.91,3.59-2.54,5.5-1.41
				l4.76,2.82c1.91,1.13,2.54,3.59,1.41,5.5L737.24,744.41C736.11,746.31,733.65,746.94,731.74,745.81z"/>
			<path class="st13" d="M1075.28,274.37l-95.67-56.63c-2.63-1.56-3.5-4.95-1.94-7.58l13.59-22.95c1.56-2.63,4.95-3.5,7.58-1.94
				l95.67,56.63c2.63,1.56,3.5,4.95,1.94,7.58l-13.59,22.95C1081.3,275.06,1077.91,275.93,1075.28,274.37z"/>
			<polygon class="st1" points="988.11,312.4 985.38,310.79 1009.38,270.25 1082.89,299.46 1100.72,269.35 1083.02,258.87 
				1084.64,256.14 1105.06,268.23 1084.24,303.41 1010.73,274.2 			"/>
		</g>
		<g>
			<path class="st11" d="M754.19,623.99l17.16,1.09c0,0,24.15,24.44,39.89,15.55c42.3-23.89-20.51-16.14-14.55-22.34
				c5.96-6.21,2.28-24.42-12.71-7.38c-4.64,5.28-12.03,6.25-12.03,6.25l-18.13-0.78L754.19,623.99z"/>
			<path class="st5" d="M731.44,492.88c0,0-96.77,99.6-50.11,117.82s51.42,19.7,88.86,22.91c2.23-11.25,1.8-26.84,1.8-26.84
				s-40.84-17.15-54.82-29.58c-7.41-6.58,42.86-42.91,41.9-58.01C758.12,504.09,750.88,468.71,731.44,492.88z"/>
		</g>
	</g>
	<g>
		<g>
			<rect x="1139.64" y="756.15" class="st4" width="69.02" height="34.87"/>
			<path class="st5" d="M1238.88,654.59v0.02c-6.94,32.22-18.79,64.76-16.03,98.09c-33.9,17.11-87.15,7.89-87.15,7.89
				c9.84-45.51-4.63-79.94-11.91-110.65c-6.44-27.17-14.19-47.99-13.73-61.41c0.54-15.79,14.31-26.76,26.53-33.43
				c4.27-2.34,8.36-4.14,11.63-5.44c4.31-1.71,7.2-2.54,7.2-2.54l59.16-4.93c0,0,2.83,0.83,10.82,5.31
				c3.18,1.77,7.18,4.13,12.15,7.25c4.01,2.52,8.66,5.53,14.01,9.13C1257.31,579.78,1247.58,614.23,1238.88,654.59z"/>
			<path class="st14" d="M1328,736.29l15.5,7.48c0,0,2.45,28.89,30.04,29.33c35.09,0.55-11.62-23.37-3.58-26.42
				c8.04-3.06,18.45-1.32-1.51-12.11c-6.18-3.34-20.35,0.49-20.35,0.49l-16.05-8.48L1328,736.29z"/>
			<path class="st5" d="M1224.33,584.08c0,0-1.97,93.38,37.86,123.76c20.82,15.88,67.68,40.84,75.05,42.93
				c4.33-10.62,10.44-24.79,10.44-24.79s-50.54-44.51-58.26-50.73c-7.72-6.21-4.71-68.88-14.12-80.71
				C1265.87,582.71,1229.08,517.4,1224.33,584.08z"/>
			<path class="st4" d="M1238.88,654.61c-6.94,32.22-17.48,78.24-14.72,111.57c-33.9,17.11-100.03,13.67-100.03,13.67
				c1.23-50.05,6.93-99.2-0.35-129.91c21.62-18.45,26.01-57.19,26.01-57.19l-13.2-37.65c4.27-2.34,8.36-4.14,11.63-5.44l15.23,36.05
				l55.07-2.11l6.87-36.1c3.18,1.77,7.18,4.13,12.15,7.25c-9.29,53.75,1.34,99.84,1.34,99.84V654.61z"/>
			<path class="st0" d="M1158.8,537.33c0,0-48.76-11.12-16.38-85.79c45.89-32.96,99.3-2.72,91.94,42.36
				c-6.11,37.4-71.81-1.37-71.81-1.37l-2.27,17.96L1158.8,537.33z"/>
			<path class="st14" d="M1157.88,455.83l-0.44,91.29c0,0,41.52,9.92,55.16-7.27c26.28-33.1,9.04-62.98-2.14-78.1
				C1199.3,446.63,1157.88,455.83,1157.88,455.83z"/>
			<path class="st14" d="M1166.89,503.1c0,3.86-4.67,21.52-9.89,21.52c-5.22,0-9.01-17.66-9.01-21.52s4.23-6.99,9.45-6.99
				S1166.89,499.24,1166.89,503.1z"/>
			<path class="st0" d="M1198.19,451.01c0,0,0.44,45.09-45.98,45.09c-3.76-28.78,0-48.7,0-48.7L1198.19,451.01z"/>
			<path class="st0" d="M1183.18,451.01c0,0-0.44,45.09,45.98,45.09c0.27-2.1,0.51-4.15,0.71-6.14
				c2.22-22.38-16.3-41.33-38.72-39.57L1183.18,451.01z"/>
			<path class="st15" d="M1195.76,535.8c-6.54,0-11.92-4.05-11.99-4.11l0.66-0.86c0.09,0.07,9.03,6.78,17.5,2.4l0.5,0.97
				C1200.18,535.37,1197.91,535.8,1195.76,535.8z"/>
			<path class="st9" d="M1201.81,705.85h-27.01c-10.83,0-19.6-8.78-19.6-19.6V647h66.21v39.25
				C1221.42,697.08,1212.64,705.85,1201.81,705.85z"/>
			<g>
				<path class="st2" d="M1224.62,455.87c0.42,19.29-19.38,5.94-43.43,6.46c-24.05,0.52-43.25,14.72-43.67-4.57
					c-0.42-19.29,18.74-35.36,42.79-35.88C1204.36,421.36,1224.2,436.58,1224.62,455.87z"/>
				
					<ellipse transform="matrix(0.9998 -0.0217 0.0217 0.9998 -9.7674 25.9173)" class="st3" cx="1190.96" cy="463.63" rx="50.74" ry="9.2"/>
			</g>
			<g>
				<g>
					<path class="st10" d="M1356.26,848.38c1.7-8.31,3.32-18.25,3.28-28.02c-0.01-7.99-1.13-15.87-4.2-22.66l41.54-5
						c2.67,7.35,3.75,15.53,3.85,23.53c0.13,9.97-1.25,19.66-2.93,27.14L1356.26,848.38z"/>
					<path class="st1" d="M1367.05,742.02l3.34-0.4c1.34-0.16,2.55,0.79,2.71,2.13l5.86,48.65c0.16,1.34-0.79,2.55-2.13,2.71
						l-3.34,0.4c-1.34,0.16-2.55-0.79-2.71-2.13l-5.86-48.65C1364.76,743.4,1365.71,742.18,1367.05,742.02z"/>
					
						<rect x="1353.29" y="791.4" transform="matrix(0.9928 -0.1197 0.1197 0.9928 -85.2742 170.3972)" class="st1" width="45.64" height="7.61"/>
				</g>
				<path class="st13" d="M1356.26,848.38c1.7-8.31,3.32-18.25,3.28-28.02c0.31,0.09,0.62,0.19,0.96,0.29
					c7.93,2.49,4.49,0.38,8.96-3.47c4.46-3.85,8.92-3.89,11.51,2.3c2.58,6.21,5.36-0.88,10.62-6.86c2.47-2.81,6.05-0.09,9.15,3.61
					c0.13,9.97-1.25,19.66-2.93,27.14L1356.26,848.38z"/>
			</g>
			<polygon class="st4" points="1182.9,789.43 1319.34,804.7 1322.59,900.94 1333.83,901.39 1338.83,788.62 1182.11,757.88 			"/>
			<path class="st1" d="M1333.24,900.78l26.47,7.85c2.75,0.81,2.13,7.93-0.67,7.73l-44.87-3.22l3.97-12.96l3.94,0.16L1333.24,900.78
				z"/>
			<polygon class="st4" points="1132.03,765.52 1102.13,899.52 1006.1,892.37 1004.45,903.5 1116.01,920.63 1163.48,768.13 			"/>
			<path class="st1" d="M1005.11,902.97l-10.66,25.47c-1.11,2.64-8.11,1.26-7.61-1.5l8.04-44.26l12.46,5.35l-0.58,3.9
				L1005.11,902.97z"/>
			<g>
				<path class="st14" d="M1122.96,738.99l11.77,12.53c0,0,0.89,34.34,18.46,38.63c47.2,11.51-3.92-25.8,4.67-26.25
					c8.59-0.45,18.37-16.25-4.22-14.07c-6.99,0.67-13.05-3.67-13.05-3.67l-12.69-12.98L1122.96,738.99z"/>
				<path class="st5" d="M1116.53,573.16c0,0-59.2,61.09-37.62,106.3c21.58,45.21,24.03,49.54,49.14,77.5
					c9.32-6.68,19.67-18.34,19.67-18.34s-18.05-40.45-19.75-59.07c-0.9-9.87,22.22-68.98,19.34-83.83
					C1144.43,580.86,1132.71,546.7,1116.53,573.16z"/>
			</g>
		</g>
		<g>
			<path class="st1" d="M1412.31,848.63h-70.87v-44.95c0-11.05,8.99-20.04,20.04-20.04h30.79c11.05,0,20.04,8.99,20.04,20.04V848.63
				z M1344.15,845.91h65.43v-42.23c0-9.55-7.77-17.32-17.32-17.32h-30.79c-9.55,0-17.32,7.77-17.32,17.32V845.91z"/>
			<g>
				<path class="st13" d="M1415.43,916.45c-25.71,8.06-51.41,8.06-77.12,0v-84.56h77.12V916.45z"/>
				<path class="st3" d="M1415.43,847.27c-25.63,6-51.34,5.42-77.12,0v-15.38h77.12V847.27z"/>
			</g>
		</g>
	</g>
	<g>
		<rect x="1534.59" y="675.87" class="st4" width="69.02" height="26.62"/>
		<path class="st5" d="M1633.83,574.31v0.02c-6.94,32.22-18.79,64.76-16.03,98.09c-33.9,17.11-87.15,7.89-87.15,7.89
			c9.84-45.51-4.63-79.94-11.91-110.65c-6.44-27.17-14.19-47.99-13.73-61.41c0.54-15.79,14.31-26.76,26.53-33.43
			c4.27-2.34,8.36-4.14,11.63-5.44c4.31-1.71,7.2-2.54,7.2-2.54l59.16-4.93c0,0,2.83,0.83,10.82,5.31
			c3.18,1.77,7.18,4.13,12.15,7.25c4.01,2.52,8.66,5.53,14.01,9.13C1652.26,499.5,1642.53,533.94,1633.83,574.31z"/>
		<path class="st14" d="M1778.17,479.53l12.27-12.07c0,0,28.03,7.43,37.74-18.39c12.35-32.85-25.92,3.06-26.08-5.54
			c-0.17-8.6,4.98-17.82-11.91-2.66c-5.23,4.69-6.4,19.33-6.4,19.33l-13.39,12.25L1778.17,479.53z"/>
		<path class="st5" d="M1599.91,525.8c0,0,87.25,33.34,129.28,6.09c21.97-14.25,61.27-49.95,65.72-56.18
			c-8.53-7.66-19.82-18.19-19.82-18.19s-58.95,32.58-67.4,37.75c-8.45,5.17-66.43-18.79-80.75-13.92S1538.75,498.85,1599.91,525.8z"
			/>
		<path class="st4" d="M1633.83,574.33c-6.94,32.22-17.48,78.24-14.72,111.57c-33.9,17.11-100.03,13.67-100.03,13.67
			c1.23-50.05,6.93-99.2-0.35-129.91c21.62-18.45,26.01-57.19,26.01-57.19l-13.2-37.65c4.27-2.34,8.36-4.14,11.63-5.44l15.23,36.05
			l55.07-2.11l6.87-36.1c3.18,1.77,7.18,4.13,12.15,7.25c-9.29,53.75,1.34,99.84,1.34,99.84V574.33z"/>
		<path class="st0" d="M1553.75,457.04c0,0-48.76-11.12-16.38-85.79c45.89-32.96,99.3-2.72,91.94,42.36
			c-6.11,37.4-71.81-1.37-71.81-1.37l-2.27,17.96L1553.75,457.04z"/>
		<path class="st14" d="M1552.83,375.54l-0.44,91.29c0,0,41.52,9.92,55.16-7.27c26.28-33.1,9.04-62.98-2.14-78.1
			C1594.25,366.34,1552.83,375.54,1552.83,375.54z"/>
		<path class="st14" d="M1561.84,422.81c0,3.86-4.67,21.52-9.89,21.52c-5.22,0-9.01-17.66-9.01-21.52c0-3.86,4.23-6.99,9.45-6.99
			C1557.61,415.82,1561.84,418.95,1561.84,422.81z"/>
		<path class="st16" d="M1590.71,455.52c-6.53,0-11.92-4.05-11.99-4.11l0.66-0.86c0.09,0.07,9.03,6.78,17.5,2.4l0.5,0.97
			C1595.13,455.08,1592.86,455.52,1590.71,455.52z"/>
		<polygon class="st4" points="1524.9,680.76 1501.58,922.5 1515.91,922.5 1561.71,680.76 		"/>
		<polygon class="st4" points="1585.39,674.64 1611.2,920.54 1622.45,920.54 1616.36,668.61 		"/>
		<path class="st8" d="M1621.83,919.95l26.77,6.79c2.78,0.7,2.44,7.84-0.37,7.75l-44.96-1.43l3.46-13.11h3.94H1621.83z"/>
		<path class="st8" d="M1515.2,917.65l26.77,6.79c2.78,0.7,2.44,7.84-0.37,7.75l-44.96-1.43l3.46-13.11h3.94H1515.2z"/>
		<path class="st0" d="M1612.81,390.58c0,0-10.62,12.31-27.17,12.08c-16.55-0.23-12.51,15.63-42.69,2.07
			c2.37-15.01,4.99-19.31,4.99-19.31h61.84L1612.81,390.58z"/>
		<path class="st9" d="M1596.76,625.57h-27.01c-10.83,0-19.6-8.78-19.6-19.6v-39.25h66.21v39.25
			C1616.36,616.79,1607.59,625.57,1596.76,625.57z"/>
		<g>
			<path class="st2" d="M1619.57,375.59c0.42,19.29-19.38,5.94-43.43,6.46c-24.05,0.52-43.25,14.72-43.67-4.57
				c-0.42-19.29,18.74-35.36,42.79-35.88C1599.31,341.07,1619.15,356.29,1619.57,375.59z"/>
			
				<ellipse transform="matrix(0.9998 -0.0217 0.0217 0.9998 -7.9351 34.4583)" class="st3" cx="1585.91" cy="383.35" rx="50.74" ry="9.2"/>
		</g>
		<g>
			<path class="st1" d="M1639.36,713.3h-70.87v-44.95c0-11.05,8.99-20.04,20.04-20.04h30.79c11.05,0,20.04,8.99,20.04,20.04V713.3z
				 M1571.2,710.58h65.43v-42.23c0-9.55-7.77-17.32-17.32-17.32h-30.79c-9.55,0-17.32,7.77-17.32,17.32V710.58z"/>
			<g>
				<path class="st2" d="M1642.48,781.13c-25.71,8.06-51.41,8.06-77.12,0v-84.56h77.12V781.13z"/>
				<path class="st3" d="M1642.48,711.94c-25.63,6-51.34,5.42-77.12,0v-15.38h77.12V711.94z"/>
			</g>
		</g>
		<g>
			<path class="st14" d="M1552.28,643.17l16.06,6.14c0,0,15.79,30.51,33.47,26.7c47.49-10.24-14.78-21.5-7.25-25.66
				s9.43-22.63-9.94-10.82c-6,3.66-13.34,2.39-13.34,2.39l-17.08-6.14L1552.28,643.17z"/>
			<path class="st5" d="M1511.48,492.88c0,0-63.96,84.68-24.82,115.95c39.14,31.26,43.24,34.09,78.03,48.29
				c5.47-10.08,9.7-25.09,9.7-25.09s-33.89-28.52-43.54-44.54c-5.11-8.49,16.53-59.35,12.74-73.99
				C1539.8,498.85,1526,465.47,1511.48,492.88z"/>
		</g>
		<g>
			<path class="st1" d="M1848.88,507.96H1778v-44.95c0-11.05,8.99-20.04,20.04-20.04h30.79c11.05,0,20.04,8.99,20.04,20.04V507.96z
				 M1780.73,505.24h65.43v-42.23c0-9.55-7.77-17.32-17.32-17.32h-30.79c-9.55,0-17.32,7.77-17.32,17.32V505.24z"/>
			<g>
				<path class="st13" d="M1852,575.79c-25.71,8.06-51.41,8.06-77.12,0v-84.56H1852V575.79z"/>
				<path class="st4" d="M1852,506.6c-25.63,6-51.34,5.42-77.12,0v-15.38H1852V506.6z"/>
			</g>
		</g>
	</g>
</g>
</svg>
